HIERARCHY
ROOT Hips
{
	OFFSET 0.00000 0.00000 0.00000
	CHANNELS 6 Xposition Yposition Zposition Zrotation Yrotation Xrotation 
	JOINT LHipJoint
	{
		OFFSET 0 0 0
		CHANNELS 3 Zrotation Yrotation Xrotation
		JOINT LeftUpLeg
		{
			OFFSET 1.62329 -1.80800 0.67318
			CHANNELS 3 Zrotation Yrotation Xrotation
			JOINT LeftLeg
			{
				OFFSET 2.57139 -7.06484 0.00000
				CHANNELS 3 Zrotation Yrotation Xrotation
				JOINT LeftFoot
				{
					OFFSET 2.52017 -6.92413 0.00000
					CHANNELS 3 Zrotation Yrotation Xrotation
					JOINT LeftToeBase
					{
						OFFSET 0.23295 -0.64001 2.10214
						CHANNELS 3 Zrotation Yrotation Xrotation
						End Site
						{
							OFFSET 0.00000 -0.00000 1.10139
						}
					}
				}
			}
		}
	}
	JOINT RHipJoint
	{
		OFFSET 0 0 0
		CHANNELS 3 Zrotation Yrotation Xrotation
		JOINT RightUpLeg
		{
			OFFSET -1.48061 -1.80800 0.67318
			CHANNELS 3 Zrotation Yrotation Xrotation
			JOINT RightLeg
			{
				OFFSET -2.63258 -7.23296 0.00000
				CHANNELS 3 Zrotation Yrotation Xrotation
				JOINT RightFoot
				{
					OFFSET -2.54779 -7.00000 0.00000
					CHANNELS 3 Zrotation Yrotation Xrotation
					JOINT RightToeBase
					{
						OFFSET -0.23067 -0.63376 2.12161
						CHANNELS 3 Zrotation Yrotation Xrotation
						End Site
						{
							OFFSET -0.00000 -0.00000 1.11000
						}
					}
				}
			}
		}
	}
	JOINT LowerBack
	{
		OFFSET 0 0 0
		CHANNELS 3 Zrotation Yrotation Xrotation
		JOINT Spine
		{
			OFFSET -0.02108 2.07573 -0.16981
			CHANNELS 3 Zrotation Yrotation Xrotation
			JOINT Spine1
			{
				OFFSET 0.05070 2.08439 -0.03141
				CHANNELS 3 Zrotation Yrotation Xrotation
				JOINT Neck
				{
					OFFSET 0 0 0
					CHANNELS 3 Zrotation Yrotation Xrotation
					JOINT Neck1
					{
						OFFSET -0.10731 1.60408 0.31370
						CHANNELS 3 Zrotation Yrotation Xrotation
						JOINT Head
						{
							OFFSET 0.08411 1.65679 -0.30822
							CHANNELS 3 Zrotation Yrotation Xrotation
							End Site
							{
								OFFSET 0.03911 1.69149 -0.14146
							}
						}
					}
				}
				JOINT LeftShoulder
				{
					OFFSET 0 0 0
					CHANNELS 3 Zrotation Yrotation Xrotation
					JOINT LeftArm
					{
						OFFSET 3.52315 0.73219 -0.54694
						CHANNELS 3 Zrotation Yrotation Xrotation
						JOINT LeftForeArm
						{
							OFFSET 5.32462 -0.00000 -0.00000
							CHANNELS 3 Zrotation Yrotation Xrotation
							JOINT LeftHand
							{
								OFFSET 3.48402 -0.00000 -0.00000
								CHANNELS 3 Zrotation Yrotation Xrotation
								JOINT LeftFingerBase
								{
									OFFSET 0 0 0
									CHANNELS 3 Zrotation Yrotation Xrotation
									JOINT LeftHandIndex1
									{
										OFFSET 0.57248 -0.00000 -0.00000
										CHANNELS 3 Zrotation Yrotation Xrotation
										End Site
										{
											OFFSET 0.46154 -0.00000 -0.00000
										}
									}
								}
								JOINT LThumb
								{
									OFFSET 0 0 0
									CHANNELS 3 Zrotation Yrotation Xrotation
									End Site
									{
										OFFSET 0.46859 -0.00000 0.46859
									}
								}
							}
						}
					}
				}
				JOINT RightShoulder
				{
					OFFSET 0 0 0
					CHANNELS 3 Zrotation Yrotation Xrotation
					JOINT RightArm
					{
						OFFSET -3.41766 0.93592 -0.10019
						CHANNELS 3 Zrotation Yrotation Xrotation
						JOINT RightForeArm
						{
							OFFSET -5.33589 -0.00000 -0.00000
							CHANNELS 3 Zrotation Yrotation Xrotation
							JOINT RightHand
							{
								OFFSET -3.64134 -0.00000 -0.00000
								CHANNELS 3 Zrotation Yrotation Xrotation
								JOINT RightFingerBase
								{
									OFFSET 0 0 0
									CHANNELS 3 Zrotation Yrotation Xrotation
									JOINT RightHandIndex1
									{
										OFFSET -0.73481 -0.00000 -0.00000
										CHANNELS 3 Zrotation Yrotation Xrotation
										End Site
										{
											OFFSET -0.59242 -0.00000 -0.00000
										}
									}
								}
								JOINT RThumb
								{
									OFFSET 0 0 0
									CHANNELS 3 Zrotation Yrotation Xrotation
									End Site
									{
										OFFSET -0.60147 -0.00000 0.60147
									}
								}
							}
						}
					}
				}
			}
		}
	}
}
MOTION
Frames: 7
Frame Time: .0083333
0.531 17.9082 -0.697 0 0 0 0 0 0 -21 0 0 0 0 0 0 0 0 0 0 0 0 0 0 21 0 0 0 0 0 0 0 0 0 0 0 0 0 0 0 0 0 0 0 0 0 0 -16 0 0 21 0 0 11 0 0 0 -8 0 0 0 0 0 0 0 0 0 0 0 0 0 0 0 0 0 0 0 0 8 0 0 0 0 0 0 0 0 0 0 0 0 0 0 0 0 0
0.5310 17.9082 -0.6970 2.7788 -6.7364 2.1805 0.0000 0.0000 0.0000 -24.9782 0.2116 -4.9309 1.0480 6.5101 18.2718 0.1556 9.9295 -16.4454 0.6680 -5.2266 -14.5561 0.0000 0.0000 0.0000 12.6234 6.1295 -8.1253 -2.3313 -9.5245 27.4503 -1.2727 -3.7935 -22.9815 -0.0070 0.5388 -1.4805 -6.0005 -1.6726 -0.3878 1.6168 -2.2410 -1.5160 5.0467 -1.0480 -1.0534 -13.3075 -8.8464 -22.2349 7.5881 -10.0930 24.3154 3.2740 -4.7543 12.9265 0.0000 0.0000 0.0000 -88.3205 1.0635 15.9140 13.5613 -22.1040 -2.6608 -0.0000 -0.0000 6.0486 11.7564 26.4374 5.2938 -7.1250 0.0000 -0.0000 -19.6360 55.8064 -5.3545 0.0000 0.0000 0.0000 84.5825 -1.8029 9.9849 -15.7911 25.2366 -3.5564 0.0000 0.0000 16.7133 -37.3881 -3.4301 2.6180 7.1250 -0.0000 -0.0000 -8.8545 -34.1903 -2.3723
0.5315 17.9077 -0.6958 2.7272 -6.6635 2.0917 0.0000 0.0000 0.0000 -24.9110 0.3196 -4.8772 1.0505 6.5174 18.2934 0.1590 9.8295 -16.3708 0.6848 -5.2909 -14.7400 0.0000 0.0000 0.0000 12.6980 6.0735 -8.0025 -2.3305 -9.5229 27.4452 -1.2800 -3.7584 -23.0227 -0.0044 0.4294 -1.1800 -5.9795 -1.6582 -0.2807 1.6384 -2.2272 -1.4775 5.0601 -1.0414 -1.0755 -13.2765 -8.6944 -22.2488 7.6042 -9.8727 24.1437 3.3176 -4.6512 12.8315 -0.0000 0.0000 0.0000 -88.3309 0.9465 15.4468 13.6329 -22.2074 -2.6878 -0.0000 -0.0000 7.6588 13.0026 23.5328 5.2677 -7.1250 0.0000 -0.0000 -16.8005 53.2728 -3.4965 -0.0000 0.0000 0.0000 84.5038 -1.8571 9.9229 -15.9428 25.4430 -3.6213 0.0000 0.0000 16.0793 -37.5869 -3.4138 2.6243 7.1250 -0.0000 -0.0000 -9.0164 -34.1774 -2.4195
0.5313 17.9053 -0.6935 2.7653 -6.6325 2.0159 0.0000 0.0000 0.0000 -24.9539 0.3324 -4.7685 1.0463 6.5048 18.2564 0.1586 9.8290 -16.3648 0.6940 -5.3253 -14.8388 0.0000 0.0000 0.0000 12.6634 6.0313 -7.9226 -2.3327 -9.5271 27.4585 -1.2809 -3.7812 -23.0423 -0.0059 0.4980 -1.3685 -6.0561 -1.6424 -0.2250 1.6507 -2.2088 -1.4306 5.1173 -1.0331 -1.0576 -13.2814 -8.5691 -22.4457 7.5570 -9.6430 24.1271 3.3410 -4.5512 12.8324 -0.0000 -0.0000 0.0000 -88.3590 0.8110 15.2128 13.6949 -22.2969 -2.7113 -0.0000 -0.0000 8.3971 13.4982 22.0990 5.1602 -7.1250 0.0000 -0.0000 -15.6398 51.9697 -2.7392 -0.0000 -0.0000 0.0000 84.4028 -1.8529 9.9406 -16.0955 25.6500 -3.6872 0.0000 0.0000 15.3442 -37.6975 -3.4545 2.6662 7.1250 -0.0000 -0.0000 -9.1114 -34.2323 -2.4333
0.5341 17.9058 -0.6908 2.8584 -6.5769 1.9953 0.0000 0.0000 0.0000 -25.0674 0.3086 -4.7502 1.0458 6.5034 18.2521 0.1558 9.8354 -16.3340 0.7138 -5.3994 -15.0512 0.0000 0.0000 0.0000 12.5444 5.8895 -7.9479 -2.3325 -9.5268 27.4575 -1.2735 -3.8595 -23.0228 -0.0135 0.7491 -2.0587 -6.1473 -1.6049 -0.2528 1.6215 -2.1561 -1.3607 5.1364 -1.0106 -0.9748 -13.1588 -8.4636 -22.7693 7.4156 -9.4418 24.1206 3.2985 -4.4608 12.8524 0.0000 0.0000 0.0000 -88.3664 0.6268 15.2774 13.7493 -22.3752 -2.7320 -0.0000 -0.0000 8.3651 13.3801 22.1715 5.1295 -7.1250 0.0000 -0.0000 -15.7871 52.0201 -2.7859 0.0000 0.0000 0.0000 84.3366 -1.7020 9.7607 -16.1959 25.7855 -3.7308 0.0000 0.0000 14.6880 -37.7606 -3.5083 2.7137 7.1250 -0.0000 -0.0000 -9.1686 -34.3017 -2.4332
0.5345 17.9064 -0.6895 2.8515 -6.4628 2.0243 0.0000 0.0000 0.0000 -25.0584 0.1517 -4.7572 1.0468 6.5065 18.2614 0.1508 9.8636 -16.3015 0.7218 -5.4290 -15.1362 0.0000 0.0000 0.0000 12.5525 5.8364 -7.9692 -2.3313 -9.5246 27.4504 -1.2823 -3.9041 -23.1181 -0.0132 0.7412 -2.0371 -6.1494 -1.5480 -0.3003 1.5861 -2.0761 -1.3044 5.0984 -0.9746 -0.9018 -13.0622 -8.3961 -23.0444 7.3835 -9.3289 24.1329 3.2870 -4.3991 12.8897 -0.0000 -0.0000 0.0000 -88.2915 0.4562 15.7207 13.7411 -22.3634 -2.7288 -0.0000 -0.0000 7.5868 12.7495 23.5513 5.1660 -7.1250 0.0000 -0.0000 -17.0580 53.2454 -3.5410 -0.0000 -0.0000 0.0000 84.3773 -1.5878 9.3767 -16.2941 25.9178 -3.7736 0.0000 0.0000 14.2636 -37.9199 -3.6646 2.8506 7.1250 -0.0000 -0.0000 -9.3155 -34.5031 -2.4270
0.5360 17.9063 -0.6892 2.7925 -6.3542 2.0109 0.0000 0.0000 0.0000 -24.9872 0.0601 -4.7196 1.0491 6.5132 18.2811 0.1557 9.8285 -16.3247 0.7007 -5.3504 -14.9107 0.0000 0.0000 0.0000 12.6294 5.8316 -7.9188 -2.3290 -9.5201 27.4361 -1.2872 -3.9950 -23.2062 -0.0154 0.8006 -2.2004 -6.0962 -1.4956 -0.3008 1.5678 -2.0046 -1.2379 5.0482 -0.9430 -0.8445 -13.0447 -8.2978 -23.2098 7.4765 -9.1924 24.0752 3.3440 -4.3203 12.8864 0.0000 -0.0000 0.0000 -88.2119 0.2811 16.3887 13.6644 -22.2529 -2.6997 -0.0000 -0.0000 6.0767 11.6951 26.5505 5.2863 -7.1250 0.0000 -0.0000 -19.7665 55.9008 -5.4380 0.0000 -0.0000 0.0000 84.4257 -1.4991 8.9968 -16.4386 26.1117 -3.8370 0.0000 0.0000 13.8157 -37.9805 -3.7646 2.9345 7.1250 -0.0000 -0.0000 -9.3755 -34.6306 -2.4135
